<?xml version="1.0" encoding="UTF-8"?>
<svg xmlns="http://www.w3.org/2000/svg" version="1.1" viewBox="0 0 493 492">
  <defs>
    <style>
      .cls-1 {
        fill: #779a0b;
      }

      .cls-2 {
        fill: #c1cc54;
      }
    </style>
  </defs>
  <!-- Generator: Adobe Illustrator 28.7.3, SVG Export Plug-In . SVG Version: 1.2.0 Build 164)  -->
  <g>
    <g id="Layer_1">
      <path class="cls-1" d="M353.5,0c4.7,3.3,4.7,7.3.7,11.5-.7.7-.9,2.4-.7,3.4.6,2.8,1.3,5.8,2.6,8.3,5.9,11.2,6.1,23.2,6,35.5-.3,22.7,0,45.3-.2,68,0,2.2-1.2,4.7-2.6,6.4-5,5.7-10.3,11.2-15.6,16.7-.7.7-2,1.2-3,1.2-29,0-58.1,0-87.6,0s-.8-.4-.8-.8v-15.3c-1.8-.2-1.1,0-2.9-.3l-2.3,13.5c0,.4-.4.7-.8.7h-12.9c-.4,0-.8-.3-.8-.8-2.3-42.2-10.6-82.1-42.5-113.9-.3-.3-.9-.3-1.2,0-1.2,1.4-2.3,2.5-3.2,3.8-1.9,2.7-3.6,5.6-5.3,8.3s-.1.8.1,1c4.3,3.9,8.6,7.4,12.5,11.3,8.5,8.2,11.6,19.1,13.9,30.1,3.6,17.5,2.6,34.8-3.9,51.6-1.1,2.9-2,5.8-3.5,8.5-.6,1.1-2.4,2.1-3.7,2.2-15,.1-30,.1-45,0-1.1,0-2.5-.2-3.1-.9-10.8-12-21.5-24.1-32.3-36.1-4.9-5.4-9.5-11.1-15-15.8-5.4-4.7-6.6-9.5-4.1-16.1,8.1-21.1,21.8-36.6,44.6-40.7,9.7-1.7,20.1.5,29.6,1s.5,0,.6-.3c7.2-8.1,14.5-16.9,22.4-25.1,3.2-3.3,7.7-5.4,11.5-8.2,3-2.2,5.2-.2,5.9,1.9.7,1.8.2,5.1-1.1,6.3-2.5,2.4-5.5,4.1-8.8,6.1s-.5,1.3.2,1.4c13.6,4.1,22.3,14.1,32.3,23.9.5.5,1.4,0,1.4-.7-1.4-13.5,7.2-23.4,10.1-33.9s0-.6-.2-.8c-2.2-2.3-4.7-3.9-5.7-6.2-1.2-2.7.2-5.4,3.5-6.8s.2,0,.3,0c36.8-.3,73.4-.3,110.5-.3M252,90s0,0,0-.1c0-8.6.2-17.3-.1-25.9,0-1.9-1.5-4.3-3-5.3-1.2-.8-4.6-.2-5.2.8-1,1.9-1.3,4.6-.9,6.8.7,3.9,2.2,7.8,3.3,11.6,1.1,4.1,2.2,8.3,3.3,12.4h2.7c0-.2,0-.2,0-.2Z"/>
      <path class="cls-2" d="M471,101.6s0,0,0,0c-1,11.1-8.1,18.2-14.7,25.5-11.1,12.1-22.6,23.8-33.8,35.9-13.4,14.5-26.4,29.3-39.9,43.6-6.9,7.3-15.8,11.1-26,9-10.8-2.2-17.7-14.8-15.4-26.3,1.6-8.1,5.8-14.6,11.3-20.4,15.3-16.4,30.7-32.6,45.9-49,9.6-10.3,18.8-20.9,28.3-31.3,4.8-5.3,10.3-9.6,17.4-11.7,14.7-4.4,26.2,6.6,26.8,20.7,0,1.2,0,2.3,0,3.9Z"/>
      <path class="cls-2" d="M109.9,207.3c0,0-.1,0-.2-.2-4.3-5-8.3-9.8-12.5-14.4-9.3-10.1-18.8-20.1-28.1-30.2-13.3-14.5-27-28.7-39.6-43.8-9.3-11.1-10.8-25.8-1.1-36.5,6.3-6.9,15-8.3,24.9-3.2,4.9,2.5,9.4,6.2,13.2,10.2,10.8,11.2,21.1,22.9,31.6,34.4,14.2,15.5,28.6,30.9,42.5,46.6,7.5,8.5,12.7,18,9.6,30.1-3.5,13.9-13.7,18.2-26.4,14.7-4.8-1.3-9.1-4.9-13.8-7.8Z"/>
      <path class="cls-1" d="M464.5,171c-.3,0-.5,0-.7,0,0,0,0,0-.2,0-6.7,0-13.3-.2-20,.1-1.9,0-4.2,1.1-5.5,2.4-4.7,5-9,10.5-13.7,15.5-10.2,11.1-20.6,22-30.9,32.9-9.6,10.2-21.6,14.8-35.3,13.9-16.3-1.1-28.7-10.3-35.3-27.3-4.5-11.6-2.9-22.9,1.3-34.2.2-.6.4-1.3.6-2s-.2-1-.8-1h-155.8c-.5,0-.9.5-.8,1,1.2,5.6,2.3,11.2,3.6,16.7,2.4,10.8-1.2,20.4-6.8,29.1-8.1,12.6-20.4,18.6-35.4,17.9-10.5-.5-20.4-4.4-27.7-11.6-12.5-12.2-23.9-25.6-35.8-38.4-4-4.4-8-8.8-12.1-13.1-.7-.8-1.9-1.7-2.8-1.7-9.4.2-18.5-.1-18.5-.1v.2c-1.2-.1-2.2-.2-3.3-.2-15.7,0-28.5,12.8-28.5,28.5s12.4,28.2,27.9,28.5h0s13.8,0,13.8,0c.4,0,.7.3.8.7,3.1,17.1,6.5,34.9,9.6,51.8,3.1,16.8,6.6,33.5,9.8,50.2,3.2,16.8,6.1,33.6,9.2,50.4,3.6,19.3,7.3,38.6,10.9,57.9,2.1,11.2,4.1,22.4,6.1,33.6,1.7,9.7,7.1,16,17.2,19.1,0,0,.2,0,.2,0,94.5.3,188.4.3,282.4.3.1,0,.2,0,.3,0,7.6-3.2,14.3-7.8,16.4-16.1,2.4-9.6,3.7-19.5,5.5-29.2,1.9-10.2,3.7-20.5,5.6-30.7,2.5-14.1,4.9-28.2,7.4-42.3,2.1-11.8,4.3-23.7,6.4-35.5,2.5-14.2,5-28.5,7.6-42.7,2.1-11.7,4.2-23.4,6.3-35,1.9-10.5,3.9-20.9,5.9-31.7s.4-.7.8-.7c5,0,9.9,0,14.8,0,10.2,0,17.8-4.2,23.1-12.2,3.2-4.6,5.1-10.2,5.1-16.3,0-15.7-12.8-28.5-28.5-28.5ZM156,292.5v139.3c0,.4-.4.8-.8.8h-25.1c-.4,0-.8-.4-.8-.8v-147.7c0-.4.4-.8.8-.8h25.1c.4,0,.8.4.8.8v8.4ZM224,316.5v115.3c0,.4-.4.8-.8.8h-25.1c-.4,0-.8-.4-.8-.8v-147.7c0-.4.4-.8.8-.8h25.1c.4,0,.8.4.8.8v32.3ZM268.3,431.9v-148.1c0-.4.4-.8.8-.8,8.1,0,16.1,0,24.1,0,.6,0,1.1.9,1.6,1.5s.2.3.2.5c0,49.5,0,98,0,146.8,0,.4-.4.8-.8.8h-25.1c-.4,0-.8-.4-.8-.8ZM363,298.5v133.3c0,.4-.4.8-.8.8h-25.1c-.4,0-.8-.4-.8-.8v-147.7c0-.4.4-.8.8-.8h25.1c.4,0,.8.4.8.8v14.3Z"/>
    </g>
  </g>
</svg>